REM DIRINDEX 1\2\6,1\2\7,1\2\8,1\2\9,1\3\10,1\3\11,1\4\12,1\4\13,1\4\14,1\5\15,1\5\16,1\5\17
REM DIRNAME folder01,folder02,folder03,folder04,folder05,folder06,folder07,folder08,folder09,folder10,folder11,folder12,folder13,folder14,folder15,folder16,folder17
TITLE ""
FILE "1900_3_056 sec10_0917_0933.mp3" MP3
  TRACK 01 AUDIO
    TITLE "0:"
    INDEX 01 00:00:00
  TRACK 02 AUDIO
    TITLE "17:cjc020_7810"
    INDEX 01 00:00:15
  TRACK 03 AUDIO
    TITLE "0:"
    INDEX 01 00:01:36
  TRACK 04 AUDIO
    TITLE "16:cjc020_7811"
    INDEX 01 00:01:38
  TRACK 05 AUDIO
    TITLE "0:"
    INDEX 01 00:02:47
  TRACK 06 AUDIO
    TITLE "17:cjc020_7812"
    INDEX 01 00:03:33
  TRACK 07 AUDIO
    TITLE "0:"
    INDEX 01 00:04:40
  TRACK 08 AUDIO
    TITLE "16:cjc020_7813"
    INDEX 01 00:04:50
  TRACK 09 AUDIO
    TITLE "0:"
    INDEX 01 00:06:02
  TRACK 10 AUDIO
    TITLE "17:cjc020_7814"
    INDEX 01 00:06:59
  TRACK 11 AUDIO
    TITLE "0:"
    INDEX 01 00:08:32
  TRACK 12 AUDIO
    TITLE "16:cjc020_7815"
    INDEX 01 00:08:36
  TRACK 13 AUDIO
    TITLE "0:"
    INDEX 01 00:09:59
  TRACK 14 AUDIO
    TITLE "17:cjc020_7816"
    INDEX 01 00:10:41
  TRACK 15 AUDIO
    TITLE "0:"
    INDEX 01 00:13:14
  TRACK 16 AUDIO
    TITLE "16:cjc020_7817"
    INDEX 01 00:13:22
  TRACK 17 AUDIO
    TITLE "0:"
    INDEX 01 00:14:41
  TRACK 18 AUDIO
    TITLE "17:cjc020_7818"
    INDEX 01 00:15:25
  TRACK 19 AUDIO
    TITLE "0:"
    INDEX 01 00:16:40
  TRACK 20 AUDIO
    TITLE "16:cjc020_7819"
    INDEX 01 00:16:48
  TRACK 21 AUDIO
    TITLE "0:"
    INDEX 01 00:17:49
  TRACK 22 AUDIO
    TITLE "17:cjc020_7820"
    INDEX 01 00:18:33
  TRACK 23 AUDIO
    TITLE "0:"
    INDEX 01 00:20:16
  TRACK 24 AUDIO
    TITLE "16:cjc020_7821"
    INDEX 01 00:20:22
  TRACK 25 AUDIO
    TITLE "0:"
    INDEX 01 00:21:39
  TRACK 26 AUDIO
    TITLE "17:cjc020_7822"
    INDEX 01 00:22:23
  TRACK 27 AUDIO
    TITLE "0:"
    INDEX 01 00:23:28
  TRACK 28 AUDIO
    TITLE "16:cjc020_7823"
    INDEX 01 00:23:40
  TRACK 29 AUDIO
    TITLE "0:"
    INDEX 01 00:24:41
  TRACK 30 AUDIO
    TITLE "17:cjc020_7824"
    INDEX 01 00:25:27
  TRACK 31 AUDIO
    TITLE "0:"
    INDEX 01 00:26:32
  TRACK 32 AUDIO
    TITLE "16:cjc020_7825"
    INDEX 01 00:26:36
  TRACK 33 AUDIO
    TITLE "0:"
    INDEX 01 00:27:47
  TRACK 34 AUDIO
    TITLE "17:cjc020_7826"
    INDEX 01 00:28:39
  TRACK 35 AUDIO
    TITLE "0:"
    INDEX 01 00:29:50
  TRACK 36 AUDIO
    TITLE "16:cjc020_7827"
    INDEX 01 00:29:56
  TRACK 37 AUDIO
    TITLE "0:"
    INDEX 01 00:30:71
  TRACK 38 AUDIO
    TITLE "17:cjc020_7828"
    INDEX 01 00:31:55
  TRACK 39 AUDIO
    TITLE "0:"
    INDEX 01 00:32:74
  TRACK 40 AUDIO
    TITLE "16:cjc020_7829"
    INDEX 01 00:33:03
  TRACK 41 AUDIO
    TITLE "0:"
    INDEX 01 00:34:20
  TRACK 42 AUDIO
    TITLE "17:cjc020_7830"
    INDEX 01 00:35:02
  TRACK 43 AUDIO
    TITLE "0:"
    INDEX 01 00:36:40
  TRACK 44 AUDIO
    TITLE "16:cjc020_7831"
    INDEX 01 00:36:46
  TRACK 45 AUDIO
    TITLE "0:"
    INDEX 01 00:37:52
  TRACK 46 AUDIO
    TITLE "17:cjc020_7832"
    INDEX 01 00:38:37
  TRACK 47 AUDIO
    TITLE "0:"
    INDEX 01 00:39:64
  TRACK 48 AUDIO
    TITLE "16:cjc020_7833"
    INDEX 01 00:39:70
  TRACK 49 AUDIO
    TITLE "0:"
    INDEX 01 00:41:02
  TRACK 50 AUDIO
    TITLE "17:cjc020_7834"
    INDEX 01 00:41:59
  TRACK 51 AUDIO
    TITLE "0:"
    INDEX 01 00:43:09
  TRACK 52 AUDIO
    TITLE "16:cjc020_7835"
    INDEX 01 00:43:11
  TRACK 53 AUDIO
    TITLE "0:"
    INDEX 01 00:44:05
  TRACK 54 AUDIO
    TITLE "17:cjc020_7836"
    INDEX 01 00:44:67
  TRACK 55 AUDIO
    TITLE "0:"
    INDEX 01 00:45:73
  TRACK 56 AUDIO
    TITLE "16:cjc020_7837"
    INDEX 01 00:46:11
  TRACK 57 AUDIO
    TITLE "0:"
    INDEX 01 00:47:11
  TRACK 58 AUDIO
    TITLE "17:cjc020_7838"
    INDEX 01 00:47:72
  TRACK 59 AUDIO
    TITLE "0:"
    INDEX 01 00:49:04
  TRACK 60 AUDIO
    TITLE "16:cjc020_7839"
    INDEX 01 00:49:10
  TRACK 61 AUDIO
    TITLE "0:"
    INDEX 01 00:50:17
  TRACK 62 AUDIO
    TITLE "17:cjc020_7840"
    INDEX 01 00:50:72
  TRACK 63 AUDIO
    TITLE "0:"
    INDEX 01 00:52:20
  TRACK 64 AUDIO
    TITLE "16:cjc020_7841"
    INDEX 01 00:52:26
  TRACK 65 AUDIO
    TITLE "0:"
    INDEX 01 00:53:47
  TRACK 66 AUDIO
    TITLE "17:cjc020_7842"
    INDEX 01 00:54:32
  TRACK 67 AUDIO
    TITLE "0:"
    INDEX 01 00:55:38
  TRACK 68 AUDIO
    TITLE "16:cjc020_7843"
    INDEX 01 00:55:46
  TRACK 69 AUDIO
    TITLE "0:"
    INDEX 01 00:56:53
